<?xml version="1.0" encoding="utf-8"?>
<!-- Generator: Adobe Illustrator 21.1.0, SVG Export Plug-In . SVG Version: 6.00 Build 0)  -->
<svg version="1.1" id="Layer_1" xmlns="http://www.w3.org/2000/svg" xmlns:xlink="http://www.w3.org/1999/xlink" x="0px" y="0px"
	 viewBox="0 0 209.8333282 63.5" style="enable-background:new 0 0 209.8333282 63.5;" xml:space="preserve">
<style type="text/css">
	.st0{fill:#861F41;}
	.st1{fill:#E87722;}
</style>
<path class="st0" d="M55.2127266,15.0718546c-4.5558586,0-8.7453804,2.4967146-10.9134521,6.5038328l-2.669548,4.9340515
	l-0.3103256,0.5736313l-0.300663,0.555706v0.0000172l-8.0635376,14.9033375L19.7923126,17.9400082h5.8542957l4.7142448,8.7648335
	l2.4736347,4.5990429l2.5537376-4.5550861l4.9385834-8.8087902h4.2689247
	c1.0309601-1.1484165,2.236412-2.1138458,3.5634117-2.8681536h-9.5123711l-5.7601929,10.274291l-5.526186-10.274291H15.0051088
	l17.9359512,33.5236893l9.9840202-18.4529247l1.6552505-3.059248l0.3103256-0.5736313l1.9199219-3.5483246
	c0.1046104-0.1933689,0.2153778-0.3821697,0.3318901-0.566227c1.2813492-2.0247059,3.2628899-3.475729,5.5289879-4.1056404
	c0.6179886-0.1717854,1.2572632-0.282526,1.9091415-0.3271313c0.2173386-0.0148792,0.4360771-0.0224075,0.6559372-0.0224075
	h26.1367264l-2.6390228,4.9185772H66.6399841l-0.8092804,1.5205555L54.6403923,45.4044762h-5.933979l9.8141556-18.2269421
	l2.2765999-4.227972H49.0200996c-0.6721878,1.0631523-1.6353645,2.8681545-1.6353645,2.8681545h8.6106682L43.9047852,48.2726288
	h12.4580765l11.999588-22.5458889h12.0875397l5.7169189-10.6548853H55.2127266z"/>
<g>
	<path class="st1" d="M101.9987411,25.4478264c0,0,1.3428802-3.0838413,2.0118256-4.615757
		c0.6689377-1.5319157,1.3428802-3.0702629,2.0218277-4.6161156c0.1529388-0.3534088,0.390213-0.6321335,0.712532-0.8368893
		c0.322319-0.2043982,0.6775208-0.3065977,1.0655899-0.3065977h1.6945038l-6.4978638,14.897851h-2.4742203l-6.4978714-14.897851
		h1.6845016c0.1872482,0,0.372345,0.0278721,0.5560226,0.0832605c0.18367,0.0553875,0.3551941,0.1350737,0.5145645,0.2390594
		c0.1593781,0.1039867,0.3015976,0.2251244,0.4266663,0.3637724c0.1243515,0.138648,0.22155,0.2912321,0.2908783,0.4573946
		l4.0236435,9.2215099l0.2358017,0.5404224L101.9987411,25.4478264z"/>
	<path class="st1" d="M114.5265961,29.9703178h-2.7336502v-14.897851h2.7336502V29.9703178z"/>
	<path class="st1" d="M145.1452484,21.9962826v6.248085c-0.3744812,0.3744926-0.7797089,0.6828766-1.2163849,0.9255104
		c-0.4366608,0.2426338-0.8940582,0.4348812-1.3721771,0.576746c-0.4788361,0.1422215-0.9762573,0.239418-1.4922485,0.2912312
		c-0.5160065,0.0521717-1.0377197,0.0778999-1.5644379,0.0778999c-1.0534363,0-2.0411224-0.1990376-2.9630585-0.5978279
		c-0.921936-0.3984337-1.7295227-0.940876-2.4220581-1.6269684c-0.6932373-0.6860924-1.2392426-1.4901066-1.6380463-2.4116859
		c-0.3980713-0.921936-0.5974579-1.9096241-0.5974579-2.9630623c0-0.7000275,0.0900421-1.37397,0.2701416-2.0221844
		c0.1800995-0.6478577,0.436676-1.2528343,0.7697144-1.8142147c0.3323212-0.5613804,0.7311096-1.0741634,1.1956482-1.5383472
		c0.4638367-0.4645424,0.9784088-0.8611889,1.5437164-1.1906567c0.5645905-0.3291092,1.1713562-0.5835352,1.8188629-0.7639923
		c0.6482086-0.1800985,1.3221588-0.2701483,2.0225372-0.2701483c0.5545959,0,1.098465,0.0621767,1.6323242,0.1868887
		c0.5331573,0.124711,1.0462952,0.3051682,1.5387115,0.5406551c0.4916992,0.2358437,0.962677,0.5199299,1.4136353,0.8526115
		c0.4502411,0.3326836,0.8697662,0.7068195,1.2578278,1.1227627l-0.6239014,0.6342773
		c-0.1936798,0.2008247-0.4038086,0.3498363-0.6289215,0.4470329c-0.2251282,0.096838-0.4831238,0.1454372-0.7740021,0.1454372
		c-0.3887787,0-0.7418365-0.110775-1.0605774-0.3326836c-0.3952179-0.2705059-0.8233185-0.4816952-1.2842865-0.6342793
		c-0.460968-0.1522255-0.9512329-0.2286968-1.4708099-0.2286968c-0.6653595,0-1.2964325,0.1282845-1.8924713,0.3848553
		c-0.5960388,0.2562122-1.1156158,0.6046181-1.559433,1.0445042c-0.4431,0.4402428-0.7954407,0.9551697-1.0548706,1.5440655
		c-0.2601318,0.5892525-0.390213,1.2199574-0.390213,1.8921127c0,0.6860924,0.1350708,1.3253746,0.4059448,1.9182014
		c0.2701416,0.5924683,0.6339111,1.1088238,1.0913086,1.5490665s0.9891205,0.7847195,1.5958862,1.0341415
		c0.6060486,0.2497807,1.2421112,0.3744926,1.9074707,0.3744926c0.3258972-0.0067902,0.655365-0.0346622,0.9876862-0.0832596
		c0.2844543-0.0414524,0.5888977-0.1072025,0.9147949-0.1976089c0.3258972-0.0900497,0.6239166-0.2183361,0.8940735-0.3844986
		v-2.1000862c-0.2908783-0.0067883-0.5767517-0.0121498-0.8576202-0.0157223
		c-0.2801514-0.0032158-0.5302887-0.0571747-0.7482758-0.1611595c-0.218689-0.1039867-0.3937836-0.2787266-0.5252838-0.5249329
		c-0.1315002-0.2458496-0.1972504-0.6114082-0.1972504-1.0966759v-0.8318863H145.1452484z"/>
	<path class="st1" d="M152.2806091,29.9703178h-2.7343597v-14.897851h2.7343597V29.9703178z"/>
	<path class="st1" d="M159.5038757,18.8249989v11.145319h-2.7236328v-14.897851h2.4013214
		c0.3330383,0,0.6253357,0.0485983,0.8783417,0.1454372c0.2529907,0.0971966,0.4523926,0.2462072,0.598175,0.447032
		c1.0398712,1.4765282,6.6222229,9.368475,6.6222229,9.368475v-9.9609442h2.7236481v14.897851h-2.5256805L159.5038757,18.8249989z"
		/>
	<path class="st1" d="M177.2372284,29.9703178h-2.7336578v-14.897851h2.7336578V29.9703178z"/>
	<path class="st1" d="M188.4972382,15.0724669H186.03302l-6.5078735,14.897851h1.6945038
		c0.1872559,0,0.3723602-0.0275135,0.5560303-0.0832596c0.18367-0.0553875,0.3551941-0.1332874,0.515274-0.2336998
		c0.1593781-0.1004124,0.3008881-0.2201214,0.4259491-0.3587685c0.1250763-0.138649,0.2215576-0.2912331,0.2908783-0.4573956
		l0.8733368-2.0168266h0.0023193l1.5747986-3.626997h0.013855l1.793045-4.1617584l2.1783295,5.0543919h-1.2371063
		c-0.9259644,0-1.7636414,0.5495262-2.1324005,1.3988972l-0.5798187,1.3354664h5.1549988l0.8840485,2.0168266
		c0.1593781,0.3534088,0.3980865,0.6307049,0.7168274,0.8315296c0.3187561,0.2011814,0.6725159,0.3015938,1.0605927,0.3015938
		h1.6945038L188.4972382,15.0724669z"/>
	<path class="st1" d="M121.7497787,29.9698544h-2.7235565V15.0724669h5.5929031
		c0.7203751,0,1.3735733,0.1350698,1.9595871,0.4055681c0.5853043,0.2701406,1.0862808,0.6288986,1.5022202,1.0759163
		c0.4159241,0.4470177,0.7375183,0.9547825,0.9662018,1.522934c0.2286987,0.5685101,0.3430481,1.1538143,0.3430481,1.7569847
		c0,0.436657-0.058609,0.8629494-0.1758118,1.2785225c-0.1186371,0.4159298-0.2915802,0.8075619-0.5202637,1.1748962
		c-0.2286987,0.3673344-0.509552,0.7053661-0.8418732,1.0133839c-0.3330307,0.308733-0.7139435,0.5702972-1.1434479,0.7850513
		c0.7275162,0.99123,1.4514618,1.973526,2.1725616,2.9472466c0.7203674,0.9737206,1.4478912,1.9528008,2.1825562,2.9368839
		h-2.1311035c-0.1450806,0-0.3151703-0.0310879-0.5088348-0.0936203c-0.194397-0.0621758-0.3973541-0.1611557-0.6081772-0.2962265
		c-0.2115402-0.1350689-0.429512-0.3101597-0.6553421-0.5249157c-0.2251129-0.2147541-0.4452286-0.4784622-0.6603394-0.7900524
		l-2.7128448-3.6594028h-2.0374832V29.9698544z M124.7020264,21.8713589c0.2629929,0,0.5145493-0.0553856,0.7532501-0.1661587
		c0.2401199-0.1107712,0.4473724-0.2601357,0.6246109-0.4470177c0.1765213-0.1872406,0.3165894-0.4037819,0.4202194-0.6499805
		c0.1043396-0.245842,0.1565094-0.500618,0.1565094-0.7639694c0-0.2704964-0.0521698-0.5284882-0.1565094-0.7746887
		c-0.1036301-0.245842-0.2436981-0.4623833-0.4202194-0.649622c-0.1772385-0.1872406-0.384491-0.3358898-0.6246109-0.4470196
		c-0.2387009-0.1107712-0.4902573-0.1661568-0.7532501-0.1661568h-2.9522476v4.0646133H124.7020264z"/>
</g>
<g>
	<path class="st1" d="M96.0207443,36.3175697V33.687191h11.4984741v2.6303787h-4.3766937v12.2778358h-2.7343674V36.3175697
		H96.0207443z"/>
	<path class="st1" d="M119.3717041,48.5954056h-9.5645523V33.6975517h9.5645523v2.6092949h-6.8409119v3.4726295h5.5516281v2.6092949
		h-5.5516281v3.5973396h6.8409119V48.5954056z"/>
	<path class="st1" d="M123.8959122,41.1412964c0,0.6721573,0.1300735,1.3046494,0.3894958,1.8971176
		c0.2601471,0.5928268,0.6131973,1.1091843,1.060585,1.5490685c0.4473953,0.4402428,0.9669647,0.7886467,1.559433,1.0448608
		c0.5924683,0.2565689,1.2249603,0.3848534,1.8974762,0.3848534c0.519577,0,1.0098419-0.0778999,1.4708099-0.2340546
		c0.460968-0.1557999,0.8890533-0.369133,1.2842712-0.6392822c0.1522369-0.0968399,0.3166046-0.1733093,0.4938507-0.2286987
		c0.1765289-0.0553856,0.3616333-0.0832596,0.556015-0.0832596c0.3115997,0,0.5767517,0.0503845,0.7954407,0.1507988
		c0.2179871,0.1004105,0.4209442,0.2408447,0.6082001,0.4209442l0.6339111,0.6342812
		c-0.3880615,0.4159431-0.8075867,0.7900772-1.2578278,1.1227608c-0.4509735,0.3326836-0.9233704,0.6171265-1.4193573,0.8526115
		c-0.4952698,0.2354889-1.0084076,0.4159431-1.5387115,0.540657c-0.5302887,0.1247101-1.0720062,0.1868858-1.6266022,0.1868858
		c-1.0534363,0-2.0432739-0.1990356-2.9680634-0.5978279c-0.9255142-0.3984337-1.7345276-0.940876-2.4277649-1.6269684
		c-0.6932449-0.6860924-1.2392578-1.4901085-1.6373367-2.4116859c-0.3987885-0.921936-0.5981827-1.9096222-0.5981827-2.9630623
		c0-0.7000275,0.0900497-1.37397,0.2708588-2.0221863c0.1800995-0.6478539,0.436676-1.2528305,0.7689972-1.8142128
		c0.3330383-0.5613785,0.7311172-1.0741615,1.1956635-1.5383453c0.4645386-0.4645424,0.9791107-0.8611908,1.5437012-1.1906586
		c0.5653152-0.3291092,1.1727905-0.5835342,1.8245773-0.7639923c0.6517868-0.1800995,1.3271561-0.2701492,2.0275497-0.2701492
		c0.5545959,0,1.0963135,0.0621796,1.6266022,0.1868896c0.530304,0.1247101,1.0434418,0.3051682,1.5387115,0.5406532
		c0.4959869,0.2358475,0.9683838,0.5199318,1.4193573,0.8526154c0.4502411,0.3326836,0.8697662,0.7068176,1.2578278,1.1227608
		l-0.6339111,0.6342773c-0.1808167,0.1800995-0.3866425,0.3237495-0.6189117,0.4313087s-0.4938507,0.1611595-0.784729,0.1611595
		c-0.3816376,0-0.7311096-0.110775-1.0498657-0.3326836c-0.402359-0.270504-0.8340302-0.4816933-1.294281-0.6342773
		c-0.460968-0.1522255-0.9483795-0.2286949-1.4608002-0.2286949c-0.6725159,0-1.3050079,0.1282845-1.8974762,0.3848534
		c-0.5924683,0.2562141-1.1120377,0.6046181-1.559433,1.0445061c-0.4473877,0.440239-0.8004379,0.9551659-1.060585,1.5440636
		C124.0259857,39.8384361,123.8959122,40.4691429,123.8959122,41.1412964z"/>
	<path class="st1" d="M150.4221954,48.5954056h-2.7336426v-6.1755447h-7.319046v6.1755447h-2.72435V33.6975517h2.72435v6.1130142
		h7.319046v-6.1130142h2.7336426V48.5954056z"/>
</g>
<g>
	<polygon class="st1" points="157.3072357,48.5954056 156.9338531,48.5954056 156.9338531,46.5131073 156.9225769,46.5131073 
		156.0821838,48.5954056 155.854248,48.5954056 155.0382538,46.5131073 155.0262756,46.5131073 155.0262756,48.5954056 
		154.6528931,48.5954056 154.6528931,46.1397858 155.2650452,46.1397858 155.971344,47.8723412 156.7005157,46.1397858 
		157.3072357,46.1397858 	"/>
	<polygon class="st1" points="154.2037201,46.5131073 153.3990173,46.5131073 153.3990173,48.5954056 153.0253143,48.5954056 
		153.0253143,46.5131073 152.2205963,46.5131073 152.2205963,46.1397858 154.2037201,46.1397858 	"/>
</g>
</svg>
